<svg xmlns="http://www.w3.org/2000/svg" version="1.1" xmlns:xlink="http://www.w3.org/1999/xlink" xmlns:svgjs="http://svgjs.dev/svgjs" width="1440" height="569" preserveAspectRatio="none" viewBox="0 0 1440 569"><g mask="url(&quot;#SvgjsMask1102&quot;)" fill="none"><rect width="1440" height="569" x="0" y="0" fill="rgba(255, 193, 4, 1)"></rect><path d="M0,523.702C96.886,523.496,170.782,444.748,254.671,396.275C343.31,345.058,451.264,317.551,506.235,231.19C563.907,140.585,590.442,22.154,557.973,-80.224C526.523,-179.389,419.045,-227.101,339.59,-294.256C272.903,-350.62,210.319,-408.297,129.814,-442.106C41.419,-479.228,-56.901,-532.904,-146.319,-498.318C-235.719,-463.74,-253.788,-346.569,-312.694,-270.951C-367.597,-200.471,-466.283,-157.285,-480.668,-69.11C-495.075,19.2,-424.541,95.539,-385.626,176.11C-347.635,254.767,-320.251,338.876,-255.368,397.36C-183.367,462.26,-96.934,523.908,0,523.702" fill="#cf9c00"></path><path d="M1440 1073.4279999999999C1541.949 1071.001 1647.343 1079.8220000000001 1736.667 1030.622 1828.951 979.7919999999999 1903.424 896.202 1940.679 797.652 1976.807 702.0840000000001 1952.862 598.481 1938.257 497.361 1923.661 396.30600000000004 1924.984 283.79 1855.634 208.851 1786.77 134.438 1673.081 135.065 1575.981 105.89100000000002 1478.172 76.50400000000002 1382.921 12.426000000000045 1283.804 37.04399999999998 1183.812 61.87900000000002 1121.605 156.788 1054.903 235.312 988.823 313.10400000000004 898.506 389.02099999999996 898.119 491.089 897.734 592.49 1013.2180000000001 652.465 1052.966 745.752 1094.311 842.787 1053.617 976.81 1134.117 1044.964 1213.886 1112.499 1335.512 1075.915 1440 1073.4279999999999" fill="#ffce38"></path></g><defs><mask id="SvgjsMask1102"><rect width="1440" height="569" fill="#ffffff"></rect></mask></defs></svg>