<svg xmlns="http://www.w3.org/2000/svg" version="1.1" xmlns:xlink="http://www.w3.org/1999/xlink" xmlns:svgjs="http://svgjs.dev/svgjs" width="2440" height="360" preserveAspectRatio="none" viewBox="0 0 2440 360"><g mask="url(&quot;#SvgjsMask1103&quot;)" fill="none"><path d="M 0,7 C 61,18 183,56.4 305,62 C 427,67.6 488,29.8 610,35 C 732,40.2 793,91.8 915,88 C 1037,84.2 1098,18.6 1220,16 C 1342,13.4 1403,73.2 1525,75 C 1647,76.8 1708,24.8 1830,25 C 1952,25.2 2013,80.4 2135,76 C 2257,71.6 2379,17.6 2440,3L2440 360L0 360z" fill="rgba(255, 232, 0, 0.8)"></path><path d="M 0,112 C 162.8,121.2 488.4,161.6 814,158 C 1139.6,154.4 1302.8,95.8 1628,94 C 1953.2,92.2 2277.6,138 2440,149L2440 360L0 360z" fill="rgba(255, 237, 0, 0.26)"></path><path d="M 0,214 C 97.6,220.4 292.8,250.8 488,246 C 683.2,241.2 780.8,188.2 976,190 C 1171.2,191.8 1268.8,248.6 1464,255 C 1659.2,261.4 1756.8,223.8 1952,222 C 2147.2,220.2 2342.4,241.2 2440,246L2440 360L0 360z" fill="rgba(255, 217, 0, 0.72)"></path><path d="M 0,282 C 122,297.6 366,357.8 610,360 C 854,362.2 976,295 1220,293 C 1464,291 1586,348 1830,350 C 2074,352 2318,312.4 2440,303L2440 360L0 360z" fill="rgba(255, 194, 0, 1)"></path></g><defs><mask id="SvgjsMask1103"><rect width="2440" height="360" fill="#ffffff"></rect></mask></defs></svg>